HIERARCHY
ROOT Hips
{
	OFFSET 0.000000 0.000000 0.000000
	CHANNELS 6 Xposition Yposition Zposition Zrotation Yrotation Xrotation 
	JOINT LHipJoint
	{
		OFFSET 0.000000 0.000000 0.000000
		CHANNELS 3 Zrotation Yrotation Xrotation
		JOINT LeftUpLeg
		{
			OFFSET 1.363060 -1.794630 0.839290
			CHANNELS 3 Zrotation Yrotation Xrotation
			JOINT LeftLeg
			{
				OFFSET 2.448110 -6.726130 0.000000
				CHANNELS 3 Zrotation Yrotation Xrotation
				JOINT LeftFoot
				{
					OFFSET 2.562200 -7.039590 0.000000
					CHANNELS 3 Zrotation Yrotation Xrotation
					JOINT LeftToeBase
					{
						OFFSET 0.157640 -0.433110 2.322550
						CHANNELS 3 Zrotation Yrotation Xrotation
						End Site
						{
							OFFSET 0.000000 0.000000 0.000000
						}
					}
				}
			}
		}
	}
	JOINT RHipJoint
	{
		OFFSET 0.000000 0.000000 0.000000
		CHANNELS 3 Zrotation Yrotation Xrotation
		JOINT RightUpLeg
		{
			OFFSET -1.305520 -1.794630 0.839290
			CHANNELS 3 Zrotation Yrotation Xrotation
			JOINT RightLeg
			{
				OFFSET -2.542530 -6.985550 0.000000
				CHANNELS 3 Zrotation Yrotation Xrotation
				JOINT RightFoot
				{
					OFFSET -2.568260 -7.056230 0.000000
					CHANNELS 3 Zrotation Yrotation Xrotation
					JOINT RightToeBase
					{
						OFFSET -0.164730 -0.452590 2.363150
						CHANNELS 3 Zrotation Yrotation Xrotation
						End Site
						{
							OFFSET 0.000000 0.000000 0.000000
						}
					}
				}
			}
		}
	}
	JOINT LowerBack
	{
		OFFSET 0.000000 0.000000 0.000000
		CHANNELS 3 Zrotation Yrotation Xrotation
		JOINT Spine
		{
			OFFSET 0.028270 2.035590 -0.193380
			CHANNELS 3 Zrotation Yrotation Xrotation
			JOINT Spine1
			{
				OFFSET 0.056720 2.048850 -0.042750
				CHANNELS 3 Zrotation Yrotation Xrotation
				JOINT Neck
				{
					OFFSET 0.000000 0.000000 0.000000
					CHANNELS 3 Zrotation Yrotation Xrotation
					JOINT Neck1
					{
						OFFSET -0.054170 1.746240 0.172020
						CHANNELS 3 Zrotation Yrotation Xrotation
						JOINT Head
						{
							OFFSET 0.104070 1.761360 -0.123970
							CHANNELS 3 Zrotation Yrotation Xrotation
							End Site
							{
								OFFSET 0.000000 0.000000 0.000000
							}
						}
					}
				}
				JOINT LeftShoulder
				{
					OFFSET 0.000000 0.000000 0.000000
					CHANNELS 3 Zrotation Yrotation Xrotation
					JOINT LeftArm
					{
						OFFSET 3.362410 1.200890 -0.311210
						CHANNELS 3 Zrotation Yrotation Xrotation
						JOINT LeftForeArm
						{
							OFFSET 4.983000 -0.000000 -0.000000
							CHANNELS 3 Zrotation Yrotation Xrotation
							JOINT LeftHand
							{
								OFFSET 3.483560 -0.000000 -0.000000
								CHANNELS 3 Zrotation Yrotation Xrotation
								JOINT LeftFingerBase
								{
									OFFSET 0.000000 0.000000 0.000000
									CHANNELS 3 Zrotation Yrotation Xrotation
									JOINT LeftHandIndex1
									{
										OFFSET 0.715260 -0.000000 -0.000000
										CHANNELS 3 Zrotation Yrotation Xrotation
										End Site
										{
											OFFSET 0.000000 0.000000 0.000000
										}
									}
								}
								JOINT LThumb
								{
									OFFSET 0.000000 0.000000 0.000000
									CHANNELS 3 Zrotation Yrotation Xrotation
									End Site
									{
										OFFSET 0.000000 0.000000 0.000000
									}
								}
							}
						}
					}
				}
				JOINT RightShoulder
				{
					OFFSET 0.000000 0.000000 0.000000
					CHANNELS 3 Zrotation Yrotation Xrotation
					JOINT RightArm
					{
						OFFSET -3.136600 1.374050 -0.404650
						CHANNELS 3 Zrotation Yrotation Xrotation
						JOINT RightForeArm
						{
							OFFSET -5.241900 -0.000000 -0.000000
							CHANNELS 3 Zrotation Yrotation Xrotation
							JOINT RightHand
							{
								OFFSET -3.444170 -0.000000 -0.000000
								CHANNELS 3 Zrotation Yrotation Xrotation
								JOINT RightFingerBase
								{
									OFFSET 0.000000 0.000000 0.000000
									CHANNELS 3 Zrotation Yrotation Xrotation
									JOINT RightHandIndex1
									{
										OFFSET -0.622530 -0.000000 -0.000000
										CHANNELS 3 Zrotation Yrotation Xrotation
										End Site
										{
											OFFSET 0.000000 0.000000 0.000000
										}
									}
								}
								JOINT RThumb
								{
									OFFSET 0.000000 0.000000 0.000000
									CHANNELS 3 Zrotation Yrotation Xrotation
									End Site
									{
										OFFSET 0.000000 0.000000 0.000000
									}
								}
							}
						}
					}
				}
			}
		}
	}
}
MOTION
Frames: 9
Frame Time: 0.033333
-0.047157 16.467144 -0.047157 -3.214266 -3.167057 4.037034 -2.079841 18.644348 3.356466 -16.314611 -6.091298 -14.527573 -8.575565 -10.291269 -28.249003 5.134580 20.552441 49.491132 0.000000 0.000000 0.000000 -2.908411 -21.428664 -6.088369 31.684645 3.913001 -2.831876 -1.965233 -4.763358 21.037192 -0.583310 11.140800 -28.550474 0.000000 0.000000 0.000000 1.912455 0.664318 5.779324 2.025080 0.452212 13.656351 0.795446 1.644011 -9.801876 6.138376 -0.995350 -9.749113 -2.473765 -0.205082 -1.721505 0.000000 0.000000 0.000000 1.421751 10.695116 8.668556 -69.844514 -4.400171 19.579106 -13.871564 -78.744303 0.390981 2.791205 -15.135383 0.188046 2.859256 -15.128087 0.000000 0.000000 0.000000 0.000000 0.000000 0.000000 0.000000 -6.479940 -9.659692 7.975898 68.372327 5.621375 18.650539 15.682275 77.710062 0.367023 -1.181381 12.721377 0.180572 -1.208042 12.722792 0.000000 0.000000 0.000000 0.000000 0.000000 0.000000 0.000000 
-0.038940 16.496524 0.110103 -2.853272 -3.209714 4.153218 -1.778421 18.700656 3.208579 -17.170975 -5.995056 -14.011700 -8.419497 -10.027944 -27.421864 4.494096 19.574631 47.237095 0.000000 0.000000 0.000000 -2.663733 -21.471633 -5.725350 31.150171 4.750012 -3.683572 -2.748710 -5.064381 22.939291 -0.561082 11.116557 -28.631125 0.000000 0.000000 0.000000 1.721169 0.691461 5.632258 1.843265 0.437884 13.681968 0.800952 1.607095 -9.870354 6.055663 -0.977486 -9.641025 -2.401045 -0.197514 -1.676964 0.000000 0.000000 0.000000 1.372894 10.708491 8.676230 -69.788474 -4.392245 19.652556 -13.987066 -78.666429 0.395110 2.754028 -15.119573 0.190177 2.821170 -15.112599 0.000000 0.000000 0.000000 0.000000 0.000000 0.000000 0.000000 -6.351329 -9.784584 7.956565 68.279313 5.576050 18.673621 15.767694 77.608080 0.367077 -1.165825 12.702689 0.180621 -1.192235 12.704160 0.000000 0.000000 0.000000 0.000000 0.000000 0.000000 0.000000 
-0.028469 16.527723 0.266767 -2.494795 -3.224734 4.277335 -1.507103 18.733397 3.036246 -17.994194 -5.910334 -13.526946 -8.263684 -9.739531 -26.501647 3.896556 18.558231 44.915944 0.000000 0.000000 0.000000 -2.396513 -21.452354 -5.335861 30.534874 5.561141 -4.553142 -3.462592 -5.347433 24.721144 -0.519067 11.013445 -28.591601 0.000000 0.000000 0.000000 1.534594 0.708389 5.477462 1.665621 0.414348 13.704127 0.807257 1.561782 -9.937634 5.973323 -0.959934 -9.532107 -2.329503 -0.190161 -1.632267 0.000000 0.000000 0.000000 1.323700 10.717237 8.684966 -69.732656 -4.385211 19.725322 -14.103154 -78.588012 0.399198 2.716843 -15.103641 0.192286 2.783083 -15.096985 0.000000 0.000000 0.000000 0.000000 0.000000 0.000000 0.000000 -6.223360 -9.913055 7.937046 68.185737 5.529582 18.695931 15.853021 77.506217 0.367107 -1.150396 12.684002 0.180658 -1.176560 12.685528 0.000000 0.000000 0.000000 0.000000 0.000000 0.000000 0.000000 
-0.015795 16.560295 0.422433 -2.142881 -3.213841 4.406326 -1.265414 18.747950 2.843434 -18.779802 -5.838021 -13.077003 -8.111301 -9.426325 -25.494521 3.346660 17.514611 42.549297 0.000000 0.000000 0.000000 -2.114838 -21.377932 -4.927617 29.852089 6.331703 -5.425864 -4.106135 -5.616186 26.377591 -0.460650 10.842715 -28.443157 0.000000 0.000000 0.000000 1.356082 0.715235 5.318108 1.493095 0.382077 13.723750 0.813792 1.508730 -10.003825 5.891206 -0.942684 -9.422380 -2.259094 -0.183017 -1.587518 0.000000 0.000000 0.000000 1.274043 10.721806 8.694624 -69.677042 -4.379007 19.797370 -14.219742 -78.509091 0.403244 2.679677 -15.087587 0.194375 2.745020 -15.081247 0.000000 0.000000 0.000000 0.000000 0.000000 0.000000 0.000000 -6.096214 -10.044707 7.917323 68.091695 5.482213 18.717488 15.938241 77.404466 0.367115 -1.135094 12.665309 0.180682 -1.161015 12.666888 0.000000 0.000000 0.000000 0.000000 0.000000 0.000000 0.000000 
-0.001481 16.593830 0.576737 -1.800640 -3.179581 4.537592 -1.052770 18.748974 2.634679 -19.524480 -5.779322 -12.664802 -7.958784 -9.090155 -24.409364 2.846191 16.453966 40.160861 0.000000 0.000000 0.000000 -1.825114 -21.255815 -4.507692 29.114069 7.050821 -6.289607 -4.675958 -5.876339 27.908750 -0.388768 10.613882 -28.197645 0.000000 0.000000 0.000000 1.188102 0.712531 5.156894 1.326320 0.341787 13.741635 0.820071 1.448759 -10.069031 5.809191 -0.925717 -9.311866 -2.189746 -0.176068 -1.542810 0.000000 0.000000 0.000000 1.223830 10.722723 8.705066 -69.621601 -4.373551 19.868682 -14.336754 -78.429703 0.407249 2.642549 -15.071412 0.196442 2.707001 -15.065385 0.000000 0.000000 0.000000 0.000000 0.000000 0.000000 0.000000 -5.970019 -10.179089 7.897391 67.997273 5.434178 18.738324 16.023341 77.302813 0.367099 -1.119917 12.646604 0.180696 -1.145598 12.648235 0.000000 0.000000 0.000000 0.000000 0.000000 0.000000 0.000000 
0.015015 16.627900 0.729968 -1.469673 -3.124759 4.668644 -0.866932 18.743057 2.412992 -20.229167 -5.732969 -12.289886 -7.815027 -8.729438 -23.249338 2.394279 15.384228 37.758155 0.000000 0.000000 0.000000 -1.533075 -21.095896 -4.081103 28.335694 7.713811 -7.135034 -5.187570 -6.127490 29.322992 -0.307697 10.339570 -27.866404 0.000000 0.000000 0.000000 1.032299 0.701129 4.996226 1.166283 0.294245 13.759103 0.824470 1.382840 -10.136047 5.725267 -0.908614 -9.198561 -2.119972 -0.169174 -1.497358 0.000000 0.000000 0.000000 1.170642 10.722506 8.716263 -69.565023 -4.367452 19.942374 -14.461589 -78.345061 0.411440 2.603103 -15.053862 0.198607 2.666613 -15.048164 0.000000 0.000000 0.000000 0.000000 0.000000 0.000000 0.000000 -5.841814 -10.318871 7.877458 67.899015 5.384739 18.758565 16.113505 77.194828 0.367028 -1.103999 12.626430 0.180682 -1.129430 12.628115 0.000000 0.000000 0.000000 0.000000 0.000000 0.000000 0.000000 
0.033198 16.662128 0.881734 -1.152194 -3.052456 4.797360 -0.707447 18.733508 2.182440 -20.891231 -5.698936 -11.953261 -7.676408 -8.346658 -22.025630 1.990119 14.315564 35.364092 0.000000 0.000000 0.000000 -1.242746 -20.904903 -3.653635 27.528731 8.315215 -7.952619 -5.641254 -6.372992 30.623312 -0.220146 10.028023 -27.460493 0.000000 0.000000 0.000000 0.889826 0.681660 4.838378 1.012525 0.240406 13.776108 0.827899 1.311797 -10.202338 5.641284 -0.891752 -9.084516 -2.051070 -0.162456 -1.452076 0.000000 0.000000 0.000000 1.116756 10.719809 8.727990 -69.508508 -4.361891 20.015351 -14.586769 -78.259934 0.415593 2.563719 -15.036158 0.200752 2.626291 -15.030785 0.000000 0.000000 0.000000 0.000000 0.000000 0.000000 0.000000 -5.714682 -10.460544 7.857315 67.800447 5.335072 18.778178 16.203590 77.086798 0.366937 -1.088194 12.606201 0.180659 -1.113378 12.607938 0.000000 0.000000 0.000000 0.000000 0.000000 0.000000 0.000000 
0.052255 16.696160 1.032021 -0.848836 -2.965920 4.922361 -0.572619 18.723287 1.946745 -21.511766 -5.677812 -11.654076 -7.534027 -7.945125 -20.747917 1.630282 13.252905 32.993657 0.000000 0.000000 0.000000 -0.956913 -20.689632 -3.229368 26.702600 8.854236 -8.736818 -6.036691 -6.617349 31.819259 -0.127960 9.685762 -26.991365 0.000000 0.000000 0.000000 0.760932 0.655159 4.684725 0.864948 0.181213 13.793048 0.830150 1.236515 -10.267995 5.557213 -0.875104 -8.969773 -1.982938 -0.155902 -1.407003 0.000000 0.000000 0.000000 1.062162 10.715170 8.740144 -69.452010 -4.356763 20.087643 -14.712232 -78.174358 0.419713 2.524408 -15.018297 0.202880 2.586047 -15.013247 0.000000 0.000000 0.000000 0.000000 0.000000 0.000000 0.000000 -5.588634 -10.603700 7.836974 67.701616 5.285345 18.797228 16.293595 76.978701 0.366826 -1.072499 12.585910 0.180626 -1.097438 12.587699 0.000000 0.000000 0.000000 0.000000 0.000000 0.000000 0.000000 
0.072207 16.729717 1.180574 -0.560815 -2.868510 5.042515 -0.462047 18.715604 1.709029 -22.089622 -5.668888 -11.392662 -7.389581 -7.526205 -19.424844 1.312381 12.205069 30.662125 0.000000 0.000000 0.000000 -0.678056 -20.457101 -2.811762 25.869172 9.331577 -9.482233 -6.382953 -6.859391 32.917022 -0.033806 9.320731 -26.467192 0.000000 0.000000 0.000000 0.646346 0.622603 4.536395 0.723551 0.117680 13.810235 0.830974 1.157979 -10.333057 5.473036 -0.858653 -8.854396 -1.915501 -0.149505 -1.362180 0.000000 0.000000 0.000000 1.006859 10.709173 8.752610 -69.395493 -4.351957 20.159246 -14.837816 -78.088426 0.423797 2.485213 -15.000297 0.204990 2.545926 -14.995564 0.000000 0.000000 0.000000 0.000000 0.000000 0.000000 0.000000 -5.463735 -10.747830 7.816467 67.602609 5.235754 18.815789 16.383464 76.870591 0.366700 -1.056914 12.565570 0.180584 -1.081612 12.567409 0.000000 0.000000 0.000000 0.000000 0.000000 0.000000 0.000000 
